<?xml version="1.0" standalone="no"?>
<!DOCTYPE svg PUBLIC "-//W3C//DTD SVG 20010904//EN"
 "http://www.w3.org/TR/2001/REC-SVG-20010904/DTD/svg10.dtd">
<svg version="1.0" xmlns="http://www.w3.org/2000/svg"
 width="864.000000pt" height="1184.000000pt" viewBox="0 0 864.000000 1184.000000"
 preserveAspectRatio="xMidYMid meet">

<g transform="translate(0.000000,1184.000000) scale(0.100000,-0.100000)"
fill="#1D3557" stroke="none">
<path d="M4035 9289 c-104 -10 -303 -43 -390 -65 -734 -184 -1353 -688 -1681
-1369 -273 -566 -333 -1157 -178 -1763 266 -1047 1155 -1812 2233 -1923 144
-15 480 -6 621 16 318 50 653 172 930 338 214 129 500 380 664 581 307 379
502 840 562 1326 22 184 15 550 -15 728 -86 505 -328 982 -689 1354 -311 321
-654 535 -1077 671 -297 96 -665 136 -980 106z m600 -149 c500 -79 934 -298
1308 -659 394 -380 653 -891 723 -1426 26 -197 24 -491 -5 -681 -116 -774
-603 -1454 -1306 -1825 -333 -176 -805 -282 -1180 -265 -792 35 -1511 446
-1945 1112 -275 422 -418 939 -397 1429 36 821 464 1552 1163 1988 289 181
679 312 1024 346 150 15 464 5 615 -19z"/>
<path d="M4130 8944 c-8 -1 -46 -6 -83 -9 l-68 -7 3 -611 3 -612 34 -63 c19
-34 82 -115 140 -180 180 -201 227 -256 255 -296 l26 -39 0 -674 0 -674 -77 3
-78 3 -3 588 -2 587 -125 0 -125 0 0 -715 0 -715 330 0 330 0 5 23 c3 12 4
389 3 837 l-3 815 -31 65 c-34 72 -73 121 -253 320 -68 74 -131 153 -142 175
-17 37 -19 70 -19 462 0 248 4 424 9 428 5 3 41 2 80 -1 l71 -7 0 -353 0 -354
130 0 130 0 -2 482 -3 482 -30 8 c-91 25 -436 47 -505 32z"/>
<path d="M3664 8866 c-96 -25 -238 -82 -317 -128 -26 -16 -51 -28 -55 -28 -4
-1 -38 -22 -77 -49 l-70 -47 0 -1540 0 -1539 123 -3 122 -3 0 791 0 790 75 0
75 0 0 -790 0 -790 125 0 125 0 0 1680 c0 1594 -1 1680 -17 1680 -10 -1 -59
-12 -109 -24z m-124 -906 l0 -560 -75 0 -75 0 0 523 0 523 68 37 c37 20 70 37
75 37 4 0 7 -252 7 -560z"/>
<path d="M4860 8696 l0 -153 61 -18 c34 -9 81 -25 105 -35 l44 -19 2 -1468 3
-1467 120 -1 120 0 -2 1408 c-1 968 2 1407 9 1407 13 0 81 -52 136 -104 l42
-40 0 171 0 172 -82 54 c-88 57 -241 138 -349 182 -73 30 -178 65 -196 65 -10
0 -13 -37 -13 -154z"/>
<path d="M2890 8437 c-30 -24 -79 -66 -108 -93 l-52 -49 -49 -190 c-103 -405
-134 -520 -141 -528 -4 -4 -22 70 -40 165 -18 95 -34 180 -37 187 -2 9 -27
-23 -59 -75 -218 -356 -314 -693 -314 -1104 0 -478 115 -911 324 -1222 l34
-49 7 223 c7 207 6 228 -13 288 -67 218 -97 461 -97 790 1 228 17 471 32 456
5 -4 70 -247 110 -408 9 -37 19 -65 23 -63 4 3 13 26 20 52 12 50 55 194 110
368 17 55 38 123 47 150 8 28 19 54 24 60 5 5 9 -438 9 -1111 l0 -1119 115
-115 115 -115 0 1773 c0 974 -1 1772 -2 1772 -2 0 -28 -19 -58 -43z"/>
<path d="M5677 8397 c-4 -17 -6 -265 -7 -550 0 -437 2 -522 15 -546 8 -16 79
-127 158 -247 78 -121 174 -268 212 -328 l69 -109 4 -117 c3 -66 -1 -148 -7
-185 -38 -217 -188 -522 -354 -717 l-57 -67 0 -198 1 -198 85 88 c214 223 361
464 464 764 86 248 120 441 120 686 0 84 5 168 11 187 21 67 23 327 4 441 -28
169 -108 370 -207 522 l-45 69 4 -409 c3 -332 1 -405 -9 -390 -20 28 -161 247
-187 290 -23 37 -23 41 -18 265 2 125 2 300 -1 388 l-5 162 -71 73 c-39 41
-94 93 -122 117 l-52 42 -5 -33z"/>
<path d="M4461 5343 c-12 -10 -55 -85 -97 -168 -42 -82 -118 -232 -170 -331
-52 -100 -94 -193 -94 -207 0 -33 22 -49 62 -45 33 3 35 6 210 348 97 190 177
353 177 363 1 20 -33 57 -53 57 -8 0 -23 -8 -35 -17z"/>
<path d="M3965 5288 c-11 -6 -49 -36 -85 -67 -36 -31 -111 -94 -168 -140 -114
-93 -128 -111 -112 -141 10 -19 286 -248 343 -285 35 -22 73 -9 83 30 8 33 3
39 -154 162 -73 58 -132 109 -130 114 2 6 71 65 153 133 94 76 151 130 153
144 3 22 -29 62 -50 62 -7 0 -22 -6 -33 -12z"/>
<path d="M4680 5293 c-21 -8 -30 -24 -30 -54 0 -23 25 -47 150 -149 83 -68
149 -126 148 -130 -2 -4 -66 -59 -143 -121 -147 -120 -166 -147 -130 -183 22
-22 46 -20 83 7 80 57 318 261 326 278 5 11 5 27 0 38 -12 25 -343 306 -369
314 -11 3 -27 3 -35 0z"/>
<path d="M3725 4010 c-12 -4 -27 -15 -34 -24 -21 -26 -32 -263 -29 -625 3
-322 3 -327 27 -367 13 -24 40 -51 63 -64 36 -20 50 -22 128 -18 76 5 99 11
164 43 238 118 327 428 165 582 -86 81 -216 85 -341 12 -28 -17 -52 -28 -55
-25 -3 2 2 98 10 213 15 221 11 258 -26 268 -44 13 -52 13 -72 5z m350 -574
c65 -42 77 -130 33 -227 -49 -106 -127 -169 -210 -169 -79 0 -88 20 -88 198
l0 139 38 26 c85 56 173 69 227 33z"/>
<path d="M2918 3983 c-16 -17 -23 -41 -49 -168 -30 -152 -183 -695 -194 -695
-15 0 -120 397 -144 545 -30 177 -29 174 -56 201 -50 50 -111 19 -143 -74 -11
-31 -37 -104 -57 -162 -39 -112 -206 -512 -212 -506 -20 19 -145 551 -174 739
-15 98 -35 127 -90 127 -49 0 -89 -35 -89 -78 0 -16 13 -94 29 -173 81 -395
196 -762 257 -816 49 -44 109 -22 161 60 46 73 118 229 179 384 32 84 62 153
65 153 4 0 17 -42 29 -92 52 -221 156 -485 199 -508 40 -21 78 -12 109 26 83
100 253 618 303 923 11 67 11 74 -8 99 -25 34 -90 43 -115 15z"/>
<path d="M4515 3981 c-115 -15 -165 -52 -165 -122 0 -44 25 -69 68 -69 25 0
32 -4 32 -20 0 -31 -28 -341 -45 -495 -9 -77 -20 -176 -25 -219 -10 -92 -2
-122 37 -137 40 -16 293 -5 367 15 327 90 526 302 526 561 0 222 -146 392
-400 465 -83 24 -286 35 -395 21z m302 -177 c150 -31 270 -117 307 -222 25
-73 19 -179 -14 -246 -74 -147 -279 -265 -492 -282 l-81 -7 6 54 c4 30 13 104
21 164 15 109 56 508 56 539 0 22 93 22 197 0z"/>
<path d="M6702 3658 c-16 -8 -60 -86 -148 -257 -134 -264 -149 -290 -163 -275
-4 5 -39 88 -76 184 -118 306 -121 310 -182 310 -37 0 -73 -33 -73 -66 0 -43
209 -545 252 -607 49 -69 106 -57 172 36 100 142 326 575 326 626 0 50 -54 75
-108 49z"/>
<path d="M3252 3600 c-115 -41 -200 -145 -246 -299 -43 -145 7 -292 121 -353
73 -40 138 -52 215 -38 161 29 263 117 239 207 -13 48 -33 50 -89 10 -27 -21
-69 -44 -93 -53 -54 -20 -156 -22 -189 -5 -39 21 -70 53 -70 73 0 14 8 18 40
18 113 0 230 49 312 130 102 102 105 209 6 282 -68 52 -154 61 -246 28z m156
-142 c35 -35 -14 -105 -103 -147 -48 -23 -152 -48 -160 -39 -7 7 23 77 48 112
33 47 104 86 157 86 25 0 51 -5 58 -12z"/>
<path d="M5687 3609 c-20 -5 -60 -20 -87 -34 -140 -71 -220 -206 -220 -369 0
-149 78 -260 204 -290 51 -12 165 -8 224 9 73 21 154 67 186 106 30 35 35 89
10 113 -23 23 -39 20 -104 -20 -72 -44 -137 -64 -212 -64 -92 0 -158 41 -158
99 0 19 6 21 58 21 208 1 391 111 417 252 22 118 -154 216 -318 177z m144
-149 c10 -6 19 -19 19 -28 0 -21 -53 -74 -95 -95 -38 -19 -124 -37 -176 -37
l-39 0 19 38 c23 44 80 98 125 118 37 16 120 18 147 4z"/>
</g>
</svg>
